<mxfile host="app.diagrams.net" modified="2022-07-21T17:45:17.090Z" agent="5.0 (Windows NT 10.0; Win64; x64) AppleWebKit/537.36 (KHTML, like Gecko) Chrome/103.0.0.0 Safari/537.36" etag="3dDIQ8fvI4B2WRE6ohwR" version="20.1.4" type="github">
  <diagram id="1muBBY7HJDSue93orU_x" name="Trang-1">
    <mxGraphModel dx="2188" dy="1237" grid="1" gridSize="10" guides="1" tooltips="1" connect="1" arrows="1" fold="1" page="1" pageScale="1" pageWidth="3300" pageHeight="4681" math="0" shadow="0">
      <root>
        <mxCell id="0" />
        <mxCell id="1" parent="0" />
        <mxCell id="DbJE-74aNJNFCIFeEZvb-1" value="Click login button" style="rounded=1;whiteSpace=wrap;html=1;fontSize=12;glass=0;strokeWidth=1;shadow=0;" vertex="1" parent="1">
          <mxGeometry x="589" y="203" width="120" height="40" as="geometry" />
        </mxCell>
        <mxCell id="DbJE-74aNJNFCIFeEZvb-2" value="Yes" style="rounded=0;html=1;jettySize=auto;orthogonalLoop=1;fontSize=11;endArrow=block;endFill=0;endSize=8;strokeWidth=1;shadow=0;labelBackgroundColor=none;edgeStyle=orthogonalEdgeStyle;entryX=0.5;entryY=0;entryDx=0;entryDy=0;" edge="1" parent="1" source="DbJE-74aNJNFCIFeEZvb-4" target="DbJE-74aNJNFCIFeEZvb-6">
          <mxGeometry y="20" relative="1" as="geometry">
            <mxPoint as="offset" />
            <mxPoint x="649" y="413" as="targetPoint" />
          </mxGeometry>
        </mxCell>
        <mxCell id="DbJE-74aNJNFCIFeEZvb-3" value="No" style="edgeStyle=orthogonalEdgeStyle;rounded=0;html=1;jettySize=auto;orthogonalLoop=1;fontSize=11;endArrow=block;endFill=0;endSize=8;strokeWidth=1;shadow=0;labelBackgroundColor=none;entryX=1;entryY=0.5;entryDx=0;entryDy=0;" edge="1" parent="1" source="DbJE-74aNJNFCIFeEZvb-4" target="DbJE-74aNJNFCIFeEZvb-1">
          <mxGeometry y="10" relative="1" as="geometry">
            <mxPoint as="offset" />
            <mxPoint x="759" y="223" as="targetPoint" />
            <Array as="points">
              <mxPoint x="729" y="333" />
              <mxPoint x="729" y="223" />
            </Array>
          </mxGeometry>
        </mxCell>
        <mxCell id="DbJE-74aNJNFCIFeEZvb-4" value="Validate info" style="rhombus;whiteSpace=wrap;html=1;shadow=0;fontFamily=Helvetica;fontSize=12;align=center;strokeWidth=1;spacing=6;spacingTop=-4;" vertex="1" parent="1">
          <mxGeometry x="599" y="293" width="100" height="80" as="geometry" />
        </mxCell>
        <mxCell id="DbJE-74aNJNFCIFeEZvb-6" value="Home screen" style="rounded=1;whiteSpace=wrap;html=1;fontSize=12;glass=0;strokeWidth=1;shadow=0;" vertex="1" parent="1">
          <mxGeometry x="578.5" y="402" width="141" height="57" as="geometry" />
        </mxCell>
        <mxCell id="DbJE-74aNJNFCIFeEZvb-7" value="Click report lost item" style="rounded=1;whiteSpace=wrap;html=1;" vertex="1" parent="1">
          <mxGeometry x="1140" y="510" width="120" height="60" as="geometry" />
        </mxCell>
        <mxCell id="DbJE-74aNJNFCIFeEZvb-8" value="" style="endArrow=classic;html=1;rounded=0;" edge="1" parent="1" target="DbJE-74aNJNFCIFeEZvb-7">
          <mxGeometry width="50" height="50" relative="1" as="geometry">
            <mxPoint x="670" y="480" as="sourcePoint" />
            <mxPoint x="869" y="503" as="targetPoint" />
            <Array as="points">
              <mxPoint x="1200" y="480" />
            </Array>
          </mxGeometry>
        </mxCell>
        <mxCell id="DbJE-74aNJNFCIFeEZvb-9" value="" style="endArrow=classic;html=1;rounded=0;exitX=0.5;exitY=1;exitDx=0;exitDy=0;entryX=0.5;entryY=0;entryDx=0;entryDy=0;" edge="1" parent="1" source="DbJE-74aNJNFCIFeEZvb-1" target="DbJE-74aNJNFCIFeEZvb-4">
          <mxGeometry width="50" height="50" relative="1" as="geometry">
            <mxPoint x="819" y="433" as="sourcePoint" />
            <mxPoint x="669" y="283" as="targetPoint" />
          </mxGeometry>
        </mxCell>
        <mxCell id="DbJE-74aNJNFCIFeEZvb-10" value="Login screen" style="rounded=1;whiteSpace=wrap;html=1;fontSize=12;glass=0;strokeWidth=1;shadow=0;" vertex="1" parent="1">
          <mxGeometry x="439" y="203" width="120" height="40" as="geometry" />
        </mxCell>
        <mxCell id="DbJE-74aNJNFCIFeEZvb-11" value="" style="endArrow=classic;html=1;rounded=0;exitX=1;exitY=0.5;exitDx=0;exitDy=0;" edge="1" parent="1" source="DbJE-74aNJNFCIFeEZvb-10" target="DbJE-74aNJNFCIFeEZvb-1">
          <mxGeometry width="50" height="50" relative="1" as="geometry">
            <mxPoint x="819" y="433" as="sourcePoint" />
            <mxPoint x="869" y="383" as="targetPoint" />
          </mxGeometry>
        </mxCell>
        <mxCell id="DbJE-74aNJNFCIFeEZvb-12" value="Post lost screen" style="rounded=1;whiteSpace=wrap;html=1;fontSize=12;glass=0;strokeWidth=1;shadow=0;" vertex="1" parent="1">
          <mxGeometry x="1140" y="603" width="120" height="60" as="geometry" />
        </mxCell>
        <mxCell id="DbJE-74aNJNFCIFeEZvb-13" value="" style="endArrow=classic;html=1;rounded=0;" edge="1" parent="1" source="DbJE-74aNJNFCIFeEZvb-7">
          <mxGeometry width="50" height="50" relative="1" as="geometry">
            <mxPoint x="819" y="433" as="sourcePoint" />
            <mxPoint x="1200" y="610" as="targetPoint" />
          </mxGeometry>
        </mxCell>
        <mxCell id="DbJE-74aNJNFCIFeEZvb-14" value="" style="endArrow=classic;html=1;rounded=0;exitX=0.5;exitY=1;exitDx=0;exitDy=0;" edge="1" parent="1" source="DbJE-74aNJNFCIFeEZvb-12" target="DbJE-74aNJNFCIFeEZvb-16">
          <mxGeometry width="50" height="50" relative="1" as="geometry">
            <mxPoint x="999" y="393" as="sourcePoint" />
            <mxPoint x="1049" y="343" as="targetPoint" />
          </mxGeometry>
        </mxCell>
        <mxCell id="DbJE-74aNJNFCIFeEZvb-15" value="" style="edgeStyle=orthogonalEdgeStyle;rounded=0;orthogonalLoop=1;jettySize=auto;html=1;" edge="1" parent="1" source="DbJE-74aNJNFCIFeEZvb-16" target="DbJE-74aNJNFCIFeEZvb-18">
          <mxGeometry relative="1" as="geometry" />
        </mxCell>
        <mxCell id="DbJE-74aNJNFCIFeEZvb-16" value="Click post lost button" style="rounded=1;whiteSpace=wrap;html=1;fontSize=12;glass=0;strokeWidth=1;shadow=0;" vertex="1" parent="1">
          <mxGeometry x="1140" y="710" width="120" height="60" as="geometry" />
        </mxCell>
        <mxCell id="DbJE-74aNJNFCIFeEZvb-17" value="No" style="edgeStyle=orthogonalEdgeStyle;rounded=0;orthogonalLoop=1;jettySize=auto;html=1;" edge="1" parent="1" source="DbJE-74aNJNFCIFeEZvb-18" target="DbJE-74aNJNFCIFeEZvb-12">
          <mxGeometry relative="1" as="geometry">
            <Array as="points">
              <mxPoint x="1290" y="860" />
              <mxPoint x="1290" y="633" />
            </Array>
          </mxGeometry>
        </mxCell>
        <mxCell id="DbJE-74aNJNFCIFeEZvb-18" value="Validate lost post" style="rhombus;whiteSpace=wrap;html=1;shadow=0;fontFamily=Helvetica;fontSize=12;align=center;strokeWidth=1;spacing=6;spacingTop=-4;" vertex="1" parent="1">
          <mxGeometry x="1150" y="822" width="100" height="80" as="geometry" />
        </mxCell>
        <mxCell id="DbJE-74aNJNFCIFeEZvb-19" value="" style="endArrow=classic;html=1;rounded=0;exitX=0.5;exitY=1;exitDx=0;exitDy=0;" edge="1" parent="1" source="DbJE-74aNJNFCIFeEZvb-18" target="DbJE-74aNJNFCIFeEZvb-6">
          <mxGeometry width="50" height="50" relative="1" as="geometry">
            <mxPoint x="819" y="513" as="sourcePoint" />
            <mxPoint x="869" y="463" as="targetPoint" />
            <Array as="points">
              <mxPoint x="1200" y="940" />
              <mxPoint x="1350" y="940" />
              <mxPoint x="1350" y="902" />
              <mxPoint x="1350" y="433" />
            </Array>
          </mxGeometry>
        </mxCell>
        <mxCell id="DbJE-74aNJNFCIFeEZvb-96" value="Yes" style="edgeLabel;html=1;align=center;verticalAlign=middle;resizable=0;points=[];" vertex="1" connectable="0" parent="DbJE-74aNJNFCIFeEZvb-19">
          <mxGeometry x="-0.9824" relative="1" as="geometry">
            <mxPoint as="offset" />
          </mxGeometry>
        </mxCell>
        <mxCell id="DbJE-74aNJNFCIFeEZvb-22" value="Click Menu" style="rounded=1;whiteSpace=wrap;html=1;" vertex="1" parent="1">
          <mxGeometry x="460.5" y="510" width="120" height="50" as="geometry" />
        </mxCell>
        <mxCell id="DbJE-74aNJNFCIFeEZvb-23" value="Click report found item" style="rounded=1;whiteSpace=wrap;html=1;" vertex="1" parent="1">
          <mxGeometry x="900" y="510" width="120" height="60" as="geometry" />
        </mxCell>
        <mxCell id="DbJE-74aNJNFCIFeEZvb-24" value="" style="endArrow=classic;html=1;rounded=0;entryX=0.5;entryY=0;entryDx=0;entryDy=0;" edge="1" parent="1">
          <mxGeometry width="50" height="50" relative="1" as="geometry">
            <mxPoint x="520" y="480" as="sourcePoint" />
            <mxPoint x="959.9999999999995" y="513" as="targetPoint" />
            <Array as="points">
              <mxPoint x="960" y="480" />
            </Array>
          </mxGeometry>
        </mxCell>
        <mxCell id="DbJE-74aNJNFCIFeEZvb-25" value="" style="endArrow=classic;html=1;rounded=0;" edge="1" parent="1" source="DbJE-74aNJNFCIFeEZvb-23" target="DbJE-74aNJNFCIFeEZvb-27">
          <mxGeometry width="50" height="50" relative="1" as="geometry">
            <mxPoint x="819" y="303" as="sourcePoint" />
            <mxPoint x="969" y="363" as="targetPoint" />
          </mxGeometry>
        </mxCell>
        <mxCell id="DbJE-74aNJNFCIFeEZvb-95" value="" style="edgeStyle=orthogonalEdgeStyle;rounded=0;orthogonalLoop=1;jettySize=auto;html=1;" edge="1" parent="1" source="DbJE-74aNJNFCIFeEZvb-27" target="DbJE-74aNJNFCIFeEZvb-30">
          <mxGeometry relative="1" as="geometry" />
        </mxCell>
        <mxCell id="DbJE-74aNJNFCIFeEZvb-27" value="Post found screen" style="rounded=1;whiteSpace=wrap;html=1;" vertex="1" parent="1">
          <mxGeometry x="900" y="612" width="120" height="60" as="geometry" />
        </mxCell>
        <mxCell id="DbJE-74aNJNFCIFeEZvb-29" value="" style="edgeStyle=orthogonalEdgeStyle;rounded=0;orthogonalLoop=1;jettySize=auto;html=1;" edge="1" parent="1" source="DbJE-74aNJNFCIFeEZvb-30" target="DbJE-74aNJNFCIFeEZvb-31">
          <mxGeometry relative="1" as="geometry" />
        </mxCell>
        <mxCell id="DbJE-74aNJNFCIFeEZvb-31" value="Validate found post" style="rhombus;whiteSpace=wrap;html=1;shadow=0;fontFamily=Helvetica;fontSize=12;align=center;strokeWidth=1;spacing=6;spacingTop=-4;" vertex="1" parent="1">
          <mxGeometry x="910" y="822" width="100" height="80" as="geometry" />
        </mxCell>
        <mxCell id="DbJE-74aNJNFCIFeEZvb-33" value="" style="endArrow=classic;html=1;rounded=0;exitX=0.5;exitY=1;exitDx=0;exitDy=0;" edge="1" parent="1">
          <mxGeometry width="50" height="50" relative="1" as="geometry">
            <mxPoint x="960" y="901" as="sourcePoint" />
            <mxPoint x="720" y="432" as="targetPoint" />
            <Array as="points">
              <mxPoint x="960" y="959" />
              <mxPoint x="1420" y="959" />
              <mxPoint x="1420" y="432" />
            </Array>
          </mxGeometry>
        </mxCell>
        <mxCell id="DbJE-74aNJNFCIFeEZvb-94" value="Yes" style="edgeLabel;html=1;align=center;verticalAlign=middle;resizable=0;points=[];" vertex="1" connectable="0" parent="DbJE-74aNJNFCIFeEZvb-33">
          <mxGeometry x="-0.9784" y="-1" relative="1" as="geometry">
            <mxPoint as="offset" />
          </mxGeometry>
        </mxCell>
        <mxCell id="DbJE-74aNJNFCIFeEZvb-36" value="My profile screen" style="rounded=1;whiteSpace=wrap;html=1;" vertex="1" parent="1">
          <mxGeometry x="510.5" y="902" width="100" height="37" as="geometry" />
        </mxCell>
        <mxCell id="DbJE-74aNJNFCIFeEZvb-103" value="" style="edgeStyle=orthogonalEdgeStyle;rounded=0;orthogonalLoop=1;jettySize=auto;html=1;" edge="1" parent="1" source="DbJE-74aNJNFCIFeEZvb-38" target="DbJE-74aNJNFCIFeEZvb-50">
          <mxGeometry relative="1" as="geometry">
            <mxPoint x="576.5" y="659.9999999999998" as="sourcePoint" />
          </mxGeometry>
        </mxCell>
        <mxCell id="DbJE-74aNJNFCIFeEZvb-38" value="Click My profile" style="whiteSpace=wrap;html=1;rounded=1;" vertex="1" parent="1">
          <mxGeometry x="510" y="612" width="99" height="38" as="geometry" />
        </mxCell>
        <mxCell id="DbJE-74aNJNFCIFeEZvb-39" value="" style="edgeStyle=orthogonalEdgeStyle;rounded=0;orthogonalLoop=1;jettySize=auto;html=1;" edge="1" parent="1" source="DbJE-74aNJNFCIFeEZvb-40" target="DbJE-74aNJNFCIFeEZvb-91">
          <mxGeometry relative="1" as="geometry" />
        </mxCell>
        <mxCell id="DbJE-74aNJNFCIFeEZvb-40" value="Click to Chat" style="whiteSpace=wrap;html=1;rounded=1;" vertex="1" parent="1">
          <mxGeometry x="742.5" y="612" width="120" height="48" as="geometry" />
        </mxCell>
        <mxCell id="DbJE-74aNJNFCIFeEZvb-41" value="" style="edgeStyle=orthogonalEdgeStyle;rounded=0;orthogonalLoop=1;jettySize=auto;html=1;" edge="1" parent="1" source="DbJE-74aNJNFCIFeEZvb-42" target="DbJE-74aNJNFCIFeEZvb-64">
          <mxGeometry relative="1" as="geometry" />
        </mxCell>
        <mxCell id="DbJE-74aNJNFCIFeEZvb-42" value="Click Search" style="whiteSpace=wrap;html=1;rounded=1;" vertex="1" parent="1">
          <mxGeometry x="625.5" y="614" width="104.5" height="36" as="geometry" />
        </mxCell>
        <mxCell id="DbJE-74aNJNFCIFeEZvb-111" value="" style="edgeStyle=orthogonalEdgeStyle;rounded=0;orthogonalLoop=1;jettySize=auto;html=1;" edge="1" parent="1" source="DbJE-74aNJNFCIFeEZvb-43" target="DbJE-74aNJNFCIFeEZvb-77">
          <mxGeometry relative="1" as="geometry" />
        </mxCell>
        <mxCell id="DbJE-74aNJNFCIFeEZvb-43" value="Click My found items" style="whiteSpace=wrap;html=1;rounded=1;" vertex="1" parent="1">
          <mxGeometry x="393" y="613" width="97" height="38" as="geometry" />
        </mxCell>
        <mxCell id="DbJE-74aNJNFCIFeEZvb-44" value="" style="edgeStyle=orthogonalEdgeStyle;rounded=0;orthogonalLoop=1;jettySize=auto;html=1;" edge="1" parent="1" source="DbJE-74aNJNFCIFeEZvb-45" target="DbJE-74aNJNFCIFeEZvb-40">
          <mxGeometry relative="1" as="geometry" />
        </mxCell>
        <mxCell id="DbJE-74aNJNFCIFeEZvb-45" value="Click to Other profile" style="whiteSpace=wrap;html=1;rounded=1;" vertex="1" parent="1">
          <mxGeometry x="740" y="510" width="125" height="60" as="geometry" />
        </mxCell>
        <mxCell id="DbJE-74aNJNFCIFeEZvb-50" value="Update info" style="whiteSpace=wrap;html=1;rounded=1;" vertex="1" parent="1">
          <mxGeometry x="508.5" y="706" width="101.5" height="40" as="geometry" />
        </mxCell>
        <mxCell id="DbJE-74aNJNFCIFeEZvb-51" value="No" style="edgeStyle=orthogonalEdgeStyle;rounded=0;orthogonalLoop=1;jettySize=auto;html=1;exitX=0.5;exitY=1;exitDx=0;exitDy=0;" edge="1" parent="1" source="DbJE-74aNJNFCIFeEZvb-52" target="DbJE-74aNJNFCIFeEZvb-36">
          <mxGeometry relative="1" as="geometry">
            <mxPoint x="484.9999999999998" y="842.0000000000002" as="sourcePoint" />
          </mxGeometry>
        </mxCell>
        <mxCell id="DbJE-74aNJNFCIFeEZvb-52" value="Validate info" style="rhombus;whiteSpace=wrap;html=1;rounded=1;" vertex="1" parent="1">
          <mxGeometry x="519" y="780" width="80" height="80" as="geometry" />
        </mxCell>
        <mxCell id="DbJE-74aNJNFCIFeEZvb-53" value="" style="endArrow=classic;html=1;rounded=0;exitX=0;exitY=0.5;exitDx=0;exitDy=0;entryX=0;entryY=0.5;entryDx=0;entryDy=0;" edge="1" parent="1" source="DbJE-74aNJNFCIFeEZvb-52" target="DbJE-74aNJNFCIFeEZvb-36">
          <mxGeometry width="50" height="50" relative="1" as="geometry">
            <mxPoint x="536.5" y="831" as="sourcePoint" />
            <mxPoint x="525.5" y="935.0374149659863" as="targetPoint" />
            <Array as="points">
              <mxPoint x="490" y="820" />
              <mxPoint x="490" y="921" />
            </Array>
          </mxGeometry>
        </mxCell>
        <mxCell id="DbJE-74aNJNFCIFeEZvb-54" value="Yes" style="edgeLabel;html=1;align=center;verticalAlign=middle;resizable=0;points=[];" vertex="1" connectable="0" parent="DbJE-74aNJNFCIFeEZvb-53">
          <mxGeometry x="0.0095" y="1" relative="1" as="geometry">
            <mxPoint as="offset" />
          </mxGeometry>
        </mxCell>
        <mxCell id="DbJE-74aNJNFCIFeEZvb-58" value="My lost items screen" style="rounded=1;whiteSpace=wrap;html=1;" vertex="1" parent="1">
          <mxGeometry x="150" y="715" width="95" height="38" as="geometry" />
        </mxCell>
        <mxCell id="DbJE-74aNJNFCIFeEZvb-59" value="" style="endArrow=classic;html=1;rounded=0;exitX=0.5;exitY=1;exitDx=0;exitDy=0;entryX=0.5;entryY=0;entryDx=0;entryDy=0;" edge="1" parent="1" source="DbJE-74aNJNFCIFeEZvb-47" target="DbJE-74aNJNFCIFeEZvb-58">
          <mxGeometry width="50" height="50" relative="1" as="geometry">
            <mxPoint x="272" y="546" as="sourcePoint" />
            <mxPoint x="322" y="592" as="targetPoint" />
            <Array as="points">
              <mxPoint x="305" y="670" />
              <mxPoint x="198" y="670" />
            </Array>
          </mxGeometry>
        </mxCell>
        <mxCell id="DbJE-74aNJNFCIFeEZvb-60" value="Click delete button" style="whiteSpace=wrap;html=1;rounded=1;" vertex="1" parent="1">
          <mxGeometry x="202.51" y="782" width="47.49" height="43" as="geometry" />
        </mxCell>
        <mxCell id="DbJE-74aNJNFCIFeEZvb-63" value="" style="edgeStyle=orthogonalEdgeStyle;rounded=0;orthogonalLoop=1;jettySize=auto;html=1;" edge="1" parent="1" source="DbJE-74aNJNFCIFeEZvb-64" target="DbJE-74aNJNFCIFeEZvb-65">
          <mxGeometry relative="1" as="geometry" />
        </mxCell>
        <mxCell id="DbJE-74aNJNFCIFeEZvb-64" value="Search by content" style="whiteSpace=wrap;html=1;rounded=1;" vertex="1" parent="1">
          <mxGeometry x="623" y="707.5" width="109.5" height="40" as="geometry" />
        </mxCell>
        <mxCell id="DbJE-74aNJNFCIFeEZvb-131" value="" style="edgeStyle=orthogonalEdgeStyle;rounded=0;orthogonalLoop=1;jettySize=auto;html=1;" edge="1" parent="1" source="DbJE-74aNJNFCIFeEZvb-65" target="DbJE-74aNJNFCIFeEZvb-130">
          <mxGeometry relative="1" as="geometry" />
        </mxCell>
        <mxCell id="DbJE-74aNJNFCIFeEZvb-65" value="View&amp;nbsp; items screen" style="rounded=1;whiteSpace=wrap;html=1;" vertex="1" parent="1">
          <mxGeometry x="620.75" y="808" width="114" height="50" as="geometry" />
        </mxCell>
        <mxCell id="DbJE-74aNJNFCIFeEZvb-68" value="Click update button" style="whiteSpace=wrap;html=1;rounded=1;" vertex="1" parent="1">
          <mxGeometry x="120" y="783" width="67.5" height="41" as="geometry" />
        </mxCell>
        <mxCell id="DbJE-74aNJNFCIFeEZvb-70" value="Update lost items" style="whiteSpace=wrap;html=1;rounded=1;" vertex="1" parent="1">
          <mxGeometry x="95.63" y="850" width="116.25" height="28" as="geometry" />
        </mxCell>
        <mxCell id="DbJE-74aNJNFCIFeEZvb-71" value="Validate Update" style="rhombus;whiteSpace=wrap;html=1;rounded=1;" vertex="1" parent="1">
          <mxGeometry x="113.755" y="896.5" width="80" height="80" as="geometry" />
        </mxCell>
        <mxCell id="DbJE-74aNJNFCIFeEZvb-113" value="" style="edgeStyle=orthogonalEdgeStyle;rounded=0;orthogonalLoop=1;jettySize=auto;html=1;" edge="1" parent="1" source="DbJE-74aNJNFCIFeEZvb-77" target="DbJE-74aNJNFCIFeEZvb-88">
          <mxGeometry relative="1" as="geometry" />
        </mxCell>
        <mxCell id="DbJE-74aNJNFCIFeEZvb-77" value="My found items screen" style="rounded=1;whiteSpace=wrap;html=1;" vertex="1" parent="1">
          <mxGeometry x="395" y="705" width="95" height="38" as="geometry" />
        </mxCell>
        <mxCell id="DbJE-74aNJNFCIFeEZvb-112" value="" style="edgeStyle=orthogonalEdgeStyle;rounded=0;orthogonalLoop=1;jettySize=auto;html=1;" edge="1" parent="1" source="DbJE-74aNJNFCIFeEZvb-78" target="DbJE-74aNJNFCIFeEZvb-80">
          <mxGeometry relative="1" as="geometry" />
        </mxCell>
        <mxCell id="DbJE-74aNJNFCIFeEZvb-78" value="Click update button" style="whiteSpace=wrap;html=1;rounded=1;" vertex="1" parent="1">
          <mxGeometry x="330" y="770" width="67.5" height="41" as="geometry" />
        </mxCell>
        <mxCell id="DbJE-74aNJNFCIFeEZvb-80" value="Update lost items" style="whiteSpace=wrap;html=1;rounded=1;" vertex="1" parent="1">
          <mxGeometry x="305.63" y="834" width="116.25" height="28" as="geometry" />
        </mxCell>
        <mxCell id="DbJE-74aNJNFCIFeEZvb-82" value="Validate Update" style="rhombus;whiteSpace=wrap;html=1;rounded=1;" vertex="1" parent="1">
          <mxGeometry x="323.755" y="890" width="80" height="80" as="geometry" />
        </mxCell>
        <mxCell id="DbJE-74aNJNFCIFeEZvb-83" value="" style="endArrow=classic;html=1;rounded=0;exitX=0.5;exitY=1;exitDx=0;exitDy=0;" edge="1" parent="1" source="DbJE-74aNJNFCIFeEZvb-80" target="DbJE-74aNJNFCIFeEZvb-82">
          <mxGeometry width="50" height="50" relative="1" as="geometry">
            <mxPoint x="332" y="802" as="sourcePoint" />
            <mxPoint x="382" y="752" as="targetPoint" />
          </mxGeometry>
        </mxCell>
        <mxCell id="DbJE-74aNJNFCIFeEZvb-86" value="" style="endArrow=classic;html=1;rounded=0;exitX=0.5;exitY=1;exitDx=0;exitDy=0;" edge="1" parent="1" source="DbJE-74aNJNFCIFeEZvb-82">
          <mxGeometry width="50" height="50" relative="1" as="geometry">
            <mxPoint x="332" y="802" as="sourcePoint" />
            <mxPoint x="390" y="730" as="targetPoint" />
            <Array as="points">
              <mxPoint x="280" y="970" />
              <mxPoint x="280" y="730" />
            </Array>
          </mxGeometry>
        </mxCell>
        <mxCell id="DbJE-74aNJNFCIFeEZvb-115" value="No" style="edgeLabel;html=1;align=center;verticalAlign=middle;resizable=0;points=[];" vertex="1" connectable="0" parent="DbJE-74aNJNFCIFeEZvb-86">
          <mxGeometry x="-0.7692" y="3" relative="1" as="geometry">
            <mxPoint as="offset" />
          </mxGeometry>
        </mxCell>
        <mxCell id="DbJE-74aNJNFCIFeEZvb-88" value="Click delete button" style="whiteSpace=wrap;html=1;rounded=1;" vertex="1" parent="1">
          <mxGeometry x="408" y="771.75" width="69.62" height="37.5" as="geometry" />
        </mxCell>
        <mxCell id="DbJE-74aNJNFCIFeEZvb-91" value="Start a chatting&amp;nbsp;" style="whiteSpace=wrap;html=1;rounded=1;" vertex="1" parent="1">
          <mxGeometry x="744.5" y="709" width="115.5" height="41" as="geometry" />
        </mxCell>
        <mxCell id="DbJE-74aNJNFCIFeEZvb-30" value="Click post found button" style="rounded=1;whiteSpace=wrap;html=1;fontSize=12;glass=0;strokeWidth=1;shadow=0;" vertex="1" parent="1">
          <mxGeometry x="900" y="720" width="120" height="60" as="geometry" />
        </mxCell>
        <mxCell id="DbJE-74aNJNFCIFeEZvb-93" value="No" style="endArrow=classic;html=1;rounded=0;exitX=0;exitY=0.5;exitDx=0;exitDy=0;entryX=0;entryY=0.5;entryDx=0;entryDy=0;" edge="1" parent="1" source="DbJE-74aNJNFCIFeEZvb-31" target="DbJE-74aNJNFCIFeEZvb-27">
          <mxGeometry width="50" height="50" relative="1" as="geometry">
            <mxPoint x="750" y="790" as="sourcePoint" />
            <mxPoint x="840" y="740" as="targetPoint" />
            <Array as="points">
              <mxPoint x="880" y="862" />
              <mxPoint x="880" y="642" />
            </Array>
          </mxGeometry>
        </mxCell>
        <mxCell id="DbJE-74aNJNFCIFeEZvb-97" value="" style="endArrow=classic;html=1;rounded=0;exitX=0.5;exitY=1;exitDx=0;exitDy=0;" edge="1" parent="1" source="DbJE-74aNJNFCIFeEZvb-6">
          <mxGeometry width="50" height="50" relative="1" as="geometry">
            <mxPoint x="830" y="730" as="sourcePoint" />
            <mxPoint x="649" y="480" as="targetPoint" />
          </mxGeometry>
        </mxCell>
        <mxCell id="DbJE-74aNJNFCIFeEZvb-98" value="" style="endArrow=classic;html=1;rounded=0;" edge="1" parent="1" target="DbJE-74aNJNFCIFeEZvb-45">
          <mxGeometry width="50" height="50" relative="1" as="geometry">
            <mxPoint x="800" y="480" as="sourcePoint" />
            <mxPoint x="910" y="560" as="targetPoint" />
          </mxGeometry>
        </mxCell>
        <mxCell id="DbJE-74aNJNFCIFeEZvb-47" value="Click My lost items" style="whiteSpace=wrap;html=1;rounded=1;" vertex="1" parent="1">
          <mxGeometry x="250" y="613" width="110" height="33.25" as="geometry" />
        </mxCell>
        <mxCell id="DbJE-74aNJNFCIFeEZvb-101" value="" style="endArrow=none;html=1;rounded=0;" edge="1" parent="1">
          <mxGeometry width="50" height="50" relative="1" as="geometry">
            <mxPoint x="300" y="580" as="sourcePoint" />
            <mxPoint x="678" y="581" as="targetPoint" />
          </mxGeometry>
        </mxCell>
        <mxCell id="DbJE-74aNJNFCIFeEZvb-104" value="" style="endArrow=classic;html=1;rounded=0;exitX=0.5;exitY=1;exitDx=0;exitDy=0;" edge="1" parent="1" source="DbJE-74aNJNFCIFeEZvb-50" target="DbJE-74aNJNFCIFeEZvb-52">
          <mxGeometry width="50" height="50" relative="1" as="geometry">
            <mxPoint x="402" y="739" as="sourcePoint" />
            <mxPoint x="452" y="689" as="targetPoint" />
          </mxGeometry>
        </mxCell>
        <mxCell id="DbJE-74aNJNFCIFeEZvb-105" value="" style="endArrow=classic;html=1;rounded=0;" edge="1" parent="1" target="DbJE-74aNJNFCIFeEZvb-42">
          <mxGeometry width="50" height="50" relative="1" as="geometry">
            <mxPoint x="678" y="580" as="sourcePoint" />
            <mxPoint x="790" y="730" as="targetPoint" />
          </mxGeometry>
        </mxCell>
        <mxCell id="DbJE-74aNJNFCIFeEZvb-106" value="" style="endArrow=classic;html=1;rounded=0;" edge="1" parent="1" target="DbJE-74aNJNFCIFeEZvb-38">
          <mxGeometry width="50" height="50" relative="1" as="geometry">
            <mxPoint x="560" y="580" as="sourcePoint" />
            <mxPoint x="460" y="750" as="targetPoint" />
          </mxGeometry>
        </mxCell>
        <mxCell id="DbJE-74aNJNFCIFeEZvb-107" value="" style="endArrow=classic;html=1;rounded=0;" edge="1" parent="1">
          <mxGeometry width="50" height="50" relative="1" as="geometry">
            <mxPoint x="440" y="580" as="sourcePoint" />
            <mxPoint x="440" y="615" as="targetPoint" />
          </mxGeometry>
        </mxCell>
        <mxCell id="DbJE-74aNJNFCIFeEZvb-108" value="" style="endArrow=classic;html=1;rounded=0;entryX=0.5;entryY=0;entryDx=0;entryDy=0;" edge="1" parent="1" target="DbJE-74aNJNFCIFeEZvb-22">
          <mxGeometry width="50" height="50" relative="1" as="geometry">
            <mxPoint x="520" y="480" as="sourcePoint" />
            <mxPoint x="790" y="640" as="targetPoint" />
          </mxGeometry>
        </mxCell>
        <mxCell id="DbJE-74aNJNFCIFeEZvb-110" value="" style="endArrow=classic;html=1;rounded=0;exitX=0.5;exitY=1;exitDx=0;exitDy=0;" edge="1" parent="1" source="DbJE-74aNJNFCIFeEZvb-22">
          <mxGeometry width="50" height="50" relative="1" as="geometry">
            <mxPoint x="480" y="620" as="sourcePoint" />
            <mxPoint x="521" y="580" as="targetPoint" />
          </mxGeometry>
        </mxCell>
        <mxCell id="DbJE-74aNJNFCIFeEZvb-114" value="" style="endArrow=classic;html=1;rounded=0;entryX=0.636;entryY=-0.083;entryDx=0;entryDy=0;entryPerimeter=0;" edge="1" parent="1" source="DbJE-74aNJNFCIFeEZvb-77" target="DbJE-74aNJNFCIFeEZvb-78">
          <mxGeometry width="50" height="50" relative="1" as="geometry">
            <mxPoint x="380" y="800" as="sourcePoint" />
            <mxPoint x="430" y="750" as="targetPoint" />
          </mxGeometry>
        </mxCell>
        <mxCell id="DbJE-74aNJNFCIFeEZvb-116" value="Yes" style="endArrow=classic;html=1;rounded=0;exitX=0;exitY=0.5;exitDx=0;exitDy=0;" edge="1" parent="1" source="DbJE-74aNJNFCIFeEZvb-82">
          <mxGeometry width="50" height="50" relative="1" as="geometry">
            <mxPoint x="320" y="930" as="sourcePoint" />
            <mxPoint x="280" y="930" as="targetPoint" />
          </mxGeometry>
        </mxCell>
        <mxCell id="DbJE-74aNJNFCIFeEZvb-121" value="" style="endArrow=classic;html=1;rounded=0;exitX=0.5;exitY=1;exitDx=0;exitDy=0;entryX=0.5;entryY=0;entryDx=0;entryDy=0;" edge="1" parent="1">
          <mxGeometry width="50" height="50" relative="1" as="geometry">
            <mxPoint x="197.5" y="754" as="sourcePoint" />
            <mxPoint x="226.2550000000001" y="783" as="targetPoint" />
          </mxGeometry>
        </mxCell>
        <mxCell id="DbJE-74aNJNFCIFeEZvb-122" value="" style="endArrow=classic;html=1;rounded=0;exitX=0.5;exitY=1;exitDx=0;exitDy=0;entryX=0.5;entryY=0;entryDx=0;entryDy=0;" edge="1" parent="1" target="DbJE-74aNJNFCIFeEZvb-68">
          <mxGeometry width="50" height="50" relative="1" as="geometry">
            <mxPoint x="197.5" y="754" as="sourcePoint" />
            <mxPoint x="610" y="636" as="targetPoint" />
          </mxGeometry>
        </mxCell>
        <mxCell id="DbJE-74aNJNFCIFeEZvb-124" value="" style="endArrow=classic;html=1;rounded=0;exitX=0.5;exitY=1;exitDx=0;exitDy=0;" edge="1" parent="1" source="DbJE-74aNJNFCIFeEZvb-68" target="DbJE-74aNJNFCIFeEZvb-70">
          <mxGeometry width="50" height="50" relative="1" as="geometry">
            <mxPoint x="560" y="686" as="sourcePoint" />
            <mxPoint x="610" y="636" as="targetPoint" />
          </mxGeometry>
        </mxCell>
        <mxCell id="DbJE-74aNJNFCIFeEZvb-125" value="" style="endArrow=classic;html=1;rounded=0;exitX=0.5;exitY=1;exitDx=0;exitDy=0;" edge="1" parent="1" source="DbJE-74aNJNFCIFeEZvb-70" target="DbJE-74aNJNFCIFeEZvb-71">
          <mxGeometry width="50" height="50" relative="1" as="geometry">
            <mxPoint x="190" y="1006" as="sourcePoint" />
            <mxPoint x="240" y="956" as="targetPoint" />
          </mxGeometry>
        </mxCell>
        <mxCell id="DbJE-74aNJNFCIFeEZvb-126" value="" style="endArrow=classic;html=1;rounded=0;exitX=0;exitY=0.5;exitDx=0;exitDy=0;entryX=0;entryY=0.5;entryDx=0;entryDy=0;" edge="1" parent="1" source="DbJE-74aNJNFCIFeEZvb-71">
          <mxGeometry width="50" height="50" relative="1" as="geometry">
            <mxPoint x="560" y="686" as="sourcePoint" />
            <mxPoint x="150" y="735" as="targetPoint" />
            <Array as="points">
              <mxPoint x="80" y="937" />
              <mxPoint x="80" y="735" />
            </Array>
          </mxGeometry>
        </mxCell>
        <mxCell id="DbJE-74aNJNFCIFeEZvb-128" value="Yes" style="edgeLabel;html=1;align=center;verticalAlign=middle;resizable=0;points=[];" vertex="1" connectable="0" parent="DbJE-74aNJNFCIFeEZvb-126">
          <mxGeometry x="-0.9409" y="3" relative="1" as="geometry">
            <mxPoint as="offset" />
          </mxGeometry>
        </mxCell>
        <mxCell id="DbJE-74aNJNFCIFeEZvb-127" value="No" style="endArrow=classic;html=1;rounded=0;" edge="1" parent="1">
          <mxGeometry width="50" height="50" relative="1" as="geometry">
            <mxPoint x="150" y="973" as="sourcePoint" />
            <mxPoint x="80" y="936" as="targetPoint" />
            <Array as="points">
              <mxPoint x="80" y="973" />
            </Array>
          </mxGeometry>
        </mxCell>
        <mxCell id="DbJE-74aNJNFCIFeEZvb-129" value="" style="endArrow=classic;html=1;rounded=0;entryX=0.5;entryY=0;entryDx=0;entryDy=0;" edge="1" parent="1" target="DbJE-74aNJNFCIFeEZvb-47">
          <mxGeometry width="50" height="50" relative="1" as="geometry">
            <mxPoint x="305" y="580" as="sourcePoint" />
            <mxPoint x="530" y="610" as="targetPoint" />
          </mxGeometry>
        </mxCell>
        <mxCell id="DbJE-74aNJNFCIFeEZvb-130" value="Click to post" style="whiteSpace=wrap;html=1;rounded=1;" vertex="1" parent="1">
          <mxGeometry x="624.25" y="898" width="109.25" height="41" as="geometry" />
        </mxCell>
        <mxCell id="DbJE-74aNJNFCIFeEZvb-132" value="Validate comment" style="rhombus;whiteSpace=wrap;html=1;rounded=1;" vertex="1" parent="1">
          <mxGeometry x="638.87" y="1090" width="80" height="80" as="geometry" />
        </mxCell>
        <mxCell id="DbJE-74aNJNFCIFeEZvb-134" value="" style="endArrow=classic;html=1;rounded=0;exitX=1;exitY=0.5;exitDx=0;exitDy=0;" edge="1" parent="1">
          <mxGeometry width="50" height="50" relative="1" as="geometry">
            <mxPoint x="718.8699999999999" y="1130" as="sourcePoint" />
            <mxPoint x="740" y="980" as="targetPoint" />
            <Array as="points">
              <mxPoint x="780" y="1130" />
              <mxPoint x="780" y="980" />
            </Array>
          </mxGeometry>
        </mxCell>
        <mxCell id="DbJE-74aNJNFCIFeEZvb-139" value="View post" style="whiteSpace=wrap;html=1;rounded=1;" vertex="1" parent="1">
          <mxGeometry x="625.5" y="960" width="109.25" height="41" as="geometry" />
        </mxCell>
        <mxCell id="DbJE-74aNJNFCIFeEZvb-140" value="" style="endArrow=classic;html=1;rounded=0;exitX=0.5;exitY=1;exitDx=0;exitDy=0;" edge="1" parent="1" source="DbJE-74aNJNFCIFeEZvb-130" target="DbJE-74aNJNFCIFeEZvb-139">
          <mxGeometry width="50" height="50" relative="1" as="geometry">
            <mxPoint x="590" y="720" as="sourcePoint" />
            <mxPoint x="640" y="670" as="targetPoint" />
          </mxGeometry>
        </mxCell>
        <mxCell id="DbJE-74aNJNFCIFeEZvb-142" value="" style="endArrow=classic;html=1;rounded=0;exitX=0.5;exitY=1;exitDx=0;exitDy=0;" edge="1" parent="1" source="DbJE-74aNJNFCIFeEZvb-132">
          <mxGeometry width="50" height="50" relative="1" as="geometry">
            <mxPoint x="590" y="720" as="sourcePoint" />
            <mxPoint x="780" y="1130" as="targetPoint" />
            <Array as="points">
              <mxPoint x="780" y="1170" />
            </Array>
          </mxGeometry>
        </mxCell>
        <mxCell id="DbJE-74aNJNFCIFeEZvb-143" value="No" style="edgeLabel;html=1;align=center;verticalAlign=middle;resizable=0;points=[];" vertex="1" connectable="0" parent="DbJE-74aNJNFCIFeEZvb-142">
          <mxGeometry x="-0.0819" relative="1" as="geometry">
            <mxPoint x="1" as="offset" />
          </mxGeometry>
        </mxCell>
        <mxCell id="DbJE-74aNJNFCIFeEZvb-144" value="Yes" style="text;html=1;align=center;verticalAlign=middle;resizable=0;points=[];autosize=1;strokeColor=none;fillColor=none;" vertex="1" parent="1">
          <mxGeometry x="727.63" y="1110" width="40" height="30" as="geometry" />
        </mxCell>
        <mxCell id="DbJE-74aNJNFCIFeEZvb-147" value="" style="edgeStyle=orthogonalEdgeStyle;rounded=0;orthogonalLoop=1;jettySize=auto;html=1;" edge="1" parent="1" source="DbJE-74aNJNFCIFeEZvb-145" target="DbJE-74aNJNFCIFeEZvb-132">
          <mxGeometry relative="1" as="geometry" />
        </mxCell>
        <mxCell id="DbJE-74aNJNFCIFeEZvb-145" value="Comment to post" style="rounded=1;whiteSpace=wrap;html=1;" vertex="1" parent="1">
          <mxGeometry x="632.63" y="1020" width="95" height="40" as="geometry" />
        </mxCell>
        <mxCell id="DbJE-74aNJNFCIFeEZvb-146" value="" style="endArrow=classic;html=1;rounded=0;exitX=0.5;exitY=1;exitDx=0;exitDy=0;entryX=0.5;entryY=0;entryDx=0;entryDy=0;" edge="1" parent="1" source="DbJE-74aNJNFCIFeEZvb-139" target="DbJE-74aNJNFCIFeEZvb-145">
          <mxGeometry width="50" height="50" relative="1" as="geometry">
            <mxPoint x="590" y="730" as="sourcePoint" />
            <mxPoint x="640" y="680" as="targetPoint" />
          </mxGeometry>
        </mxCell>
      </root>
    </mxGraphModel>
  </diagram>
</mxfile>
